<svg width="384" height="512" viewBox="0 0 384 512" fill="none" xmlns="http://www.w3.org/2000/svg">
<path d="M384 112V464C384 490.51 362.51 512 336 512H48C21.49 512 0 490.51 0 464V112C0 85.49 21.49 64 48 64H128C128 28.71 156.71 0 192 0C227.29 0 256 28.71 256 64H336C362.51 64 384 85.49 384 112ZM192 40C178.745 40 168 50.745 168 64C168 77.255 178.745 88 192 88C205.255 88 216 77.255 216 64C216 50.745 205.255 40 192 40ZM288 154V134C288 132.409 287.368 130.883 286.243 129.757C285.117 128.632 283.591 128 282 128H102C100.409 128 98.8826 128.632 97.7574 129.757C96.6321 130.883 96 132.409 96 134V154C96 155.591 96.6321 157.117 97.7574 158.243C98.8826 159.368 100.409 160 102 160H282C283.591 160 285.117 159.368 286.243 158.243C287.368 157.117 288 155.591 288 154Z" fill="white"/>
</svg>
