<svg width="496" height="496" viewBox="0 0 496 496" fill="none" xmlns="http://www.w3.org/2000/svg">
<path d="M248 0C111 0 0 111 0 248C0 385 111 496 248 496C385 496 496 385 496 248C496 111 385 0 248 0ZM248 448C137.5 448 48 358.5 48 248C48 137.5 137.5 48 248 48C358.5 48 448 137.5 448 248C448 358.5 358.5 448 248 448ZM309.8 343.6L224.9 281.9C221.8 279.6 220 276 220 272.2V108C220 101.4 225.4 96 232 96H264C270.6 96 276 101.4 276 108V249.7L342.8 298.3C348.2 302.2 349.3 309.7 345.4 315.1L326.6 341C322.7 346.3 315.2 347.5 309.8 343.6Z" fill="white"/>
</svg>
