<svg width="512" height="512" viewBox="0 0 512 512" fill="none" xmlns="http://www.w3.org/2000/svg">
<path d="M470.38 1.48025L150.41 95.9703C143.915 98.0105 138.24 102.069 134.21 107.556C130.179 113.043 128.004 119.672 128 126.48V387.89C117.521 385.347 106.783 384.031 96 383.97C43 383.97 0 412.63 0 447.97C0 483.31 43 511.97 96 511.97C149 511.97 192 483.31 192 447.97V214.29L448 139.29V323.9C437.523 321.348 426.783 320.029 416 319.97C363 319.97 320 348.63 320 383.97C320 419.31 363 447.97 416 447.97C469 447.97 512 419.32 512 383.97V31.9702C511.995 26.9467 510.808 21.9947 508.534 17.5152C506.26 13.0358 502.964 9.15457 498.911 6.18578C494.859 3.21699 490.164 1.24402 485.207 0.426535C480.251 -0.390947 475.171 -0.0299706 470.38 1.48025V1.48025Z" fill="white"/>
</svg>
